PathFileType	4	(X/Y/Z)	c:/Users/goper/Files/vsCode/490R/osim_files/C17/C17_SSWS_06.trc
DataRate	CameraRate	NumFrames	NumMarkers	Units                	OrigDataRate	OrigDataStartFrame	OrigNumFrames
250.00	250.00	5	36	mm	250.0	1581	2529
                Frame#	Time	LPSIS			LASIS			LTH1			LTH2			LTH3			LTH4			LLFE			LMFE			LSH1			LSH2			LSH3			LSH4			LLMAL			LMMAL			LCAL			LMTP5			LTOE			LMTP1			RPSIS			RASIS			RTH1			RTH2			RTH3			RTH4			RLFE			RMFE			RSH1			RSH2			RSH3			RSH4			RLMAL			RMMAL			RCAL			RMTP1			RTOE			RMTP5		
		X1	Y1	Z1	X2	Y2	Z2	X3	Y3	Z3	X4	Y4	Z4	X5	Y5	Z5	X6	Y6	Z6	X7	Y7	Z7	X8	Y8	Z8	X9	Y9	Z9	X10	Y10	Z10	X11	Y11	Z11	X12	Y12	Z12	X13	Y13	Z13	X14	Y14	Z14	X15	Y15	Z15	X16	Y16	Z16	X17	Y17	Z17	X18	Y18	Z18	X19	Y19	Z19	X20	Y20	Z20	X21	Y21	Z21	X22	Y22	Z22	X23	Y23	Z23	X24	Y24	Z24	X25	Y25	Z25	X26	Y26	Z26	X27	Y27	Z27	X28	Y28	Z28	X29	Y29	Z29	X30	Y30	Z30	X31	Y31	Z31	X32	Y32	Z32	X33	Y33	Z33	X34	Y34	Z34	X35	Y35	Z35	X36	Y36	Z36

1581	6.32000	-2565.25562	1053.42944	328.45737	-2745.92676	998.33087	444.99829	-2661.03662	671.84393	474.49908	-2670.52881	625.94104	468.14111	-2719.53442	682.04309	484.75815	-2722.32739	637.30035	479.21338	-2670.74512	478.30835	458.48120	-2692.76489	466.85663	332.98688	-2461.88452	391.76901	448.73248	-2424.39307	364.19250	444.06818	-2491.83691	337.07144	448.96707	-2454.35913	317.14392	444.60083	-2316.12207	264.41522	421.46677	-2337.02075	262.82047	336.94370	-2266.95190	330.50269	381.04929	-2280.90991	129.62924	413.34613	-2329.92896	96.32939	348.16058	-2306.26611	114.43388	300.24463	-2571.16284	1054.12122	255.60759	-2761.50439	1035.44336	182.90303	-2801.65259	748.17102	123.61890	-2818.44897	705.62280	133.85504	-2852.84106	766.01843	139.54771	-2870.44287	723.81470	142.18053	-2909.26514	505.34689	174.77768	-2889.46704	529.78259	296.00977	-2885.80737	289.41141	157.03246	-2846.14355	302.94067	173.30988	-2912.05640	313.75226	184.95752	0.00000	0.00000	0.00000	-2845.64893	101.22958	236.47354	-2870.31494	120.81741	323.17340	-2775.03247	62.93814	281.18094	-3012.25098	59.10892	333.24762	-3025.80249	81.06436	282.41504	-2978.25415	52.25409	218.69156
1582	6.32400	-2570.96924	1054.48584	328.44522	-2757.99146	1002.78058	446.34598	-2670.82861	672.79730	475.41003	-2681.09937	626.83868	468.24020	-2729.29199	683.29797	484.97061	-2732.64014	638.79523	479.35846	-2682.85327	479.76773	458.97437	-2702.37793	468.40982	333.94174	-2473.83398	393.61328	449.26935	-2435.74805	366.36063	444.27164	-2503.89771	338.90146	449.44263	-2464.38965	320.02570	445.38336	-2327.93799	266.52982	421.77167	-2348.86401	264.52606	337.43243	-2277.57275	331.17087	381.11505	-2295.59106	130.90004	415.02301	-2345.18774	97.96437	349.96988	-2320.93506	115.29034	301.97473	-2575.12256	1056.27930	255.19173	-2766.94751	1043.53564	181.83090	-2805.43555	748.66339	123.29757	-2819.74512	706.09265	133.03735	-2856.83228	766.17206	139.24046	-2875.34155	724.80066	140.90515	-2911.20288	504.99969	174.44254	-2891.22363	529.87488	295.71823	-2886.64624	289.40503	156.85608	-2846.80493	303.04169	173.23911	-2912.02588	312.89017	185.07480	0.00000	0.00000	0.00000	-2845.70508	101.23819	236.55045	-2870.38745	120.79751	323.20123	-2775.10156	62.95764	281.25568	-3011.56104	58.10812	333.10681	-3025.77368	80.82944	282.65759	-2978.25757	52.22895	218.68468
1583	6.32800	-2576.66455	1055.54822	328.43945	-2757.50684	1001.72314	444.55255	-2680.59082	673.83521	476.23096	-2691.55908	627.98212	468.26901	-2739.04614	684.64246	485.16928	-2742.93970	640.31152	479.58585	-2695.02368	481.33517	459.41907	-2713.46069	470.15454	334.19846	-2485.73755	395.41141	449.77759	-2448.42676	367.75961	445.23022	-2515.94727	340.73611	449.89172	-2476.30737	321.94601	445.87073	-2340.13135	268.03311	422.29465	-2360.95508	266.07596	337.87540	-2288.14893	331.57739	381.05112	-2310.51538	132.09265	416.71536	-2360.66577	99.40811	351.91159	-2335.94409	115.83939	303.75626	-2582.50439	1057.17236	255.46872	-2773.42700	1041.79272	183.11739	-2809.30420	749.24585	123.01465	-2823.24609	706.57623	132.67166	-2860.75195	766.31213	138.93439	-2880.08496	725.73035	139.69510	-2918.48486	507.38223	172.90683	-2893.11621	530.04694	295.49396	-2890.87231	292.24356	158.40654	-2847.39136	303.11783	173.10886	-2911.94189	312.03464	185.18559	0.00000	0.00000	0.00000	-2845.77368	101.24852	236.60211	-2870.46631	120.82341	323.22629	-2775.05591	63.04993	281.21637	-3010.35425	56.45029	332.67743	-3025.71313	80.65153	282.90292	-2978.25024	52.19977	218.69218
1584	6.33200	-2582.34180	1056.61633	328.43997	-2769.36987	1006.28687	445.87616	-2690.32080	674.95282	476.96591	-2702.04517	629.10876	468.42377	-2748.79492	686.05658	485.35852	-2753.28320	642.26935	479.67816	-2706.88232	483.03790	459.80200	-2728.20972	470.71353	335.72379	-2497.68457	397.04184	450.17798	-2460.41528	369.41467	445.69302	-2528.15625	342.54178	450.19058	-2488.62793	323.64090	446.21371	-2352.37476	269.64047	422.52811	-2373.21387	267.24561	338.28876	-2299.02905	331.70502	380.97473	-2325.77295	133.12805	418.38089	-2376.38037	100.67107	353.71625	-2351.08203	116.17773	305.51166	-2588.15820	1058.45361	254.91864	-2778.48560	1048.40857	181.86786	-2812.93237	749.74664	122.66334	-2826.71387	706.97986	132.30717	-2864.60034	766.41516	138.63571	-2884.62158	726.56604	138.58478	-2914.74707	504.35873	173.52930	-2894.80737	530.12134	295.19174	-2891.54834	292.21179	158.08226	-2848.01221	303.16541	172.88098	-2911.82153	311.19534	185.28651	0.00000	0.00000	0.00000	-2845.83667	101.25116	236.63933	-2870.52344	120.83141	323.19171	-2775.09082	63.13799	281.20633	-3009.08569	54.70378	332.04214	-3025.62402	80.52744	283.15042	-2978.25977	52.17469	218.65112
1585	6.33600	-2588.00195	1057.69019	328.44659	-2769.07446	1005.55573	444.03195	-2700.01636	676.14520	477.61877	-2712.38379	630.43768	468.51581	-2758.53711	687.51843	485.54233	-2763.56763	644.04755	479.96082	-2719.00854	484.97815	460.19681	-2745.82837	470.19092	338.71478	-2509.72998	398.71939	450.57867	-2472.51099	370.91028	446.00769	-2540.29126	344.26382	450.48792	-2500.92383	325.16171	446.54913	-2364.85278	270.71310	422.96100	-2385.61328	268.18982	338.64676	-2310.11328	331.52472	380.83011	-2341.12646	133.99173	420.01361	-2392.41187	101.86675	355.63785	-2366.56201	116.39059	307.28036	-2592.01953	1060.41833	254.35638	-2784.99634	1047.50879	183.14458	-2816.68018	750.23309	122.29585	-2830.27026	707.41083	131.90620	-2868.44385	766.59900	138.32272	-2888.89893	727.27020	137.60870	-2916.34668	504.03030	173.03458	-2896.48218	530.08441	294.82730	-2892.25781	292.18207	157.74367	-2848.59424	303.19562	172.65378	-2911.68140	310.38193	185.37410	0.00000	0.00000	0.00000	-2845.88867	101.25341	236.64296	-2870.62964	120.90737	323.17032	-2775.07251	63.24899	281.15155	-3008.21118	53.43692	331.28366	-3025.50757	80.45405	283.39938	-2978.26001	52.13604	218.63237
